<?xml version="1.0" encoding="UTF-8" standalone="no"?>
<!-- Created with Inkscape (http://www.inkscape.org/) -->
<svg
   xmlns:dc="http://purl.org/dc/elements/1.1/"
   xmlns:cc="http://web.resource.org/cc/"
   xmlns:rdf="http://www.w3.org/1999/02/22-rdf-syntax-ns#"
   xmlns:svg="http://www.w3.org/2000/svg"
   xmlns="http://www.w3.org/2000/svg"
   xmlns:sodipodi="http://sodipodi.sourceforge.net/DTD/sodipodi-0.dtd"
   xmlns:inkscape="http://www.inkscape.org/namespaces/inkscape"
   id="svg2351"
   sodipodi:version="0.32"
   inkscape:version="0.45.1"
   width="420"
   height="98"
   version="1.0"
   sodipodi:docbase="C:\Users\Dave\Pictures\Wikipedia"
   sodipodi:docname="Themepark.jpg.svg"
   inkscape:output_extension="org.inkscape.output.svg.inkscape">
  <metadata
     id="metadata2356">
    <rdf:RDF>
      <cc:Work
         rdf:about="">
        <dc:format>image/svg+xml</dc:format>
        <dc:type
           rdf:resource="http://purl.org/dc/dcmitype/StillImage" />
      </cc:Work>
    </rdf:RDF>
  </metadata>
  <defs
     id="defs2354" />
  <sodipodi:namedview
     inkscape:window-height="720"
     inkscape:window-width="1280"
     inkscape:pageshadow="2"
     inkscape:pageopacity="0.0"
     guidetolerance="10.0"
     gridtolerance="10.0"
     objecttolerance="10.0"
     borderopacity="1.0"
     bordercolor="#666666"
     pagecolor="#ffffff"
     id="base"
     inkscape:zoom="1.7619048"
     inkscape:cx="341.66833"
     inkscape:cy="21.713818"
     inkscape:window-x="-8"
     inkscape:window-y="-8"
     inkscape:current-layer="svg2351" />
  <rect
     style="fill:#000000"
     id="rect2457"
     width="9.2306099"
     height="8.6286135"
     x="393.90625"
     y="16.529833" />
  <path
     style="fill:#000000"
     d="M 207.99999,95.700662 L 207.99999,93.200662 L 311.49999,93.200662 L 414.99999,93.200662 L 414.99999,48.700665 L 414.99999,4.2006651 L 311.49999,4.2006651 C 208.66666,4.2006651 207.99999,4.1877831 207.99999,2.2006651 C 207.99999,0.21324315 208.66666,0.20066515 313.99999,0.20066515 L 419.99999,0.20066515 L 419.99999,49.200665 L 419.99999,98.200662 L 313.99999,98.200662 L 207.99999,98.200662 L 207.99999,95.700662 z M 4.4165717,93.283992 C 4.1874577,93.054832 3.9999997,73.216115 3.9999997,49.197953 L 3.9999997,5.5285751 L 64.749997,4.8655221 C 154.08092,3.8905231 207.99999,4.0166711 207.99999,5.2006651 C 207.99999,5.8608281 242.83332,6.2006651 310.49999,6.2006651 L 412.99999,6.2006651 L 412.99999,48.03674 L 412.99999,89.872812 L 352.83519,90.536742 C 319.74455,90.901892 273.65705,91.200662 250.41853,91.200662 C 226.14578,91.200662 208.02482,91.585442 207.83332,92.104912 C 207.51011,92.981702 5.2862487,94.153872 4.4165717,93.283992 z M 207.76098,48.923499 C 207.96648,16.029963 207.75384,7.0472121 206.76098,6.6801971 C 206.06744,6.4238221 160.72499,6.5485461 105.99999,6.9573631 L 6.4999997,7.7006651 L 6.2364837,38.200665 C 6.0915497,54.975665 6.2485767,73.765325 6.5854317,79.955455 L 7.1978967,91.210242 L 107.34894,90.955452 L 207.49999,90.700662 L 207.76098,48.923499 z M 66.999997,74.268975 L 60.499997,73.700665 L 60.946767,66.200665 C 61.753177,52.663294 61.674257,51.781571 59.619827,51.375502 C 56.857637,50.829545 56.235177,52.553269 55.459777,62.895675 C 55.074837,68.030125 54.452167,72.421205 54.076077,72.653645 C 53.699987,72.886085 49.884937,72.741235 45.598187,72.331765 C 41.154247,71.907285 35.749907,72.008075 33.025067,72.566255 C 24.02137,74.410635 20.09127,70.853805 17.8815,58.860947 C 16.668098,52.275575 16.577875,52.134468 13.949745,52.711703 C 11.735933,53.197937 11.150822,52.895284 10.6436,51.001579 C 9.4218927,46.440349 9.9123421,44.439482 12.405469,43.813746 C 14.529923,43.280542 14.755724,42.771376 14.338303,39.455338 C 13.872257,35.75303 13.949296,35.655338 19.862065,32.450665 C 23.160085,30.663165 26.308411,29.200665 26.858331,29.200665 C 27.408261,29.200665 28.374887,31.689531 29.006397,34.731478 L 30.154587,40.26229 L 33.513347,39.632182 C 36.993987,38.979211 37.326077,39.473986 38.257687,46.700665 C 38.328587,47.250665 37.062117,47.940698 35.443297,48.234071 C 32.662467,48.738034 32.515577,49.007194 32.782327,53.110231 C 33.153267,58.815805 34.533077,61.200665 37.463227,61.200665 C 40.139477,61.200665 39.955297,62.097375 42.084657,38.700665 C 42.685327,32.100665 43.268657,26.60652 43.380937,26.491455 C 43.493217,26.376389 46.887697,26.559124 50.924237,26.897533 L 58.263387,27.512821 L 57.604207,36.244882 L 56.945027,44.976942 L 60.982457,42.979379 C 63.831987,41.569544 66.016897,41.168855 68.408497,41.617522 C 72.331757,42.35353 76.999997,45.698276 76.999997,47.773245 C 76.999997,49.655805 78.434017,49.587555 80.060657,47.627577 C 84.349717,42.459577 98.816237,39.502921 104.76414,42.5787 C 108.48213,44.501349 109.08248,44.574838 108.74999,43.066614 C 108.61224,42.441737 110.96942,41.338292 113.99999,40.608984 C 121.2211,38.871217 122.99999,38.889338 122.99999,40.700665 C 122.99999,42.842958 124.75223,42.556637 125.46936,40.297162 C 126.7775,36.175587 138.97979,33.279161 142.55057,36.242641 C 143.6695,37.171268 144.48189,36.781409 146.55034,34.323197 C 149.37302,30.968637 155.76671,28.674314 159.6066,29.638067 C 162.92904,30.471945 165.85163,33.96027 167.16344,38.657691 L 168.29249,42.700665 L 169.15335,39.533579 C 172.59555,26.869768 197.07202,25.927194 203.24844,38.220598 C 204.99244,41.691821 205.67259,50.709184 204.24999,51.499052 C 203.83749,51.728083 199.0114,51.330726 193.52536,50.616036 C 188.03931,49.901347 183.37121,49.496107 183.15182,49.715505 C 182.93242,49.934902 183.02197,50.81557 183.35083,51.672545 C 184.24092,53.992084 188.37107,55.200665 195.40767,55.200665 L 201.68515,55.200665 L 201.06344,58.950665 L 200.44173,62.700665 L 191.31804,62.626135 C 183.67237,62.563685 181.3686,62.142955 177.09717,60.029045 C 174.29372,58.641639 171.99999,57.839202 171.99999,58.245856 C 171.99999,59.130135 158.12028,62.654285 157.41506,61.949065 C 157.14543,61.679435 155.79571,57.239721 154.41569,52.083034 C 151.70308,41.946883 150.96522,40.616296 148.56721,41.536498 C 146.48887,42.334031 146.59098,45.264918 148.99999,53.958106 C 150.09999,57.927589 150.99999,61.796745 150.99999,62.556235 C 150.99999,63.855335 141.4902,67.200665 137.79722,67.200665 C 136.63537,67.200665 135.64762,64.733355 134.00837,57.736415 C 131.61366,47.514941 129.92053,44.851549 127.41205,47.360034 C 126.0953,48.676784 126.21253,49.982727 128.43301,58.733175 C 130.20844,65.729775 130.61561,68.820195 129.82626,69.308035 C 129.21286,69.687135 126.01187,70.528335 122.71294,71.177355 C 115.79513,72.538355 115.89893,72.616315 113.98015,64.617975 C 113.26538,61.638455 112.41493,59.202375 112.09028,59.204475 C 109.76964,59.219435 93.654267,62.213065 93.143207,62.724125 C 92.093517,63.773815 96.183487,66.203205 98.941127,66.168015 C 100.34851,66.150065 103.85551,65.321575 106.73449,64.326935 L 111.96899,62.518495 L 112.58361,65.794695 C 112.92165,67.596605 112.92031,69.520575 112.58063,70.070195 C 111.52188,71.783285 100.94607,74.351325 94.580027,74.441125 C 87.222147,74.544915 83.029897,72.610195 79.565547,67.511945 C 76.839497,63.500205 76.268347,63.970265 75.784987,70.623365 C 75.459217,75.107325 75.655767,75.025765 66.999997,74.268975 z M 97.857007,54.310198 C 100.24534,52.796887 98.262367,49.200665 95.039597,49.200665 C 92.300247,49.200665 90.999997,50.675432 90.999997,53.782452 C 90.999997,55.365162 95.629697,55.721484 97.857007,54.310198 z M 191.99999,41.782452 C 191.99999,38.909472 190.72933,37.200665 188.593,37.200665 C 185.93264,37.200665 183.99999,38.96794 183.99999,41.400665 C 183.99999,42.833998 184.8148,43.200665 187.99999,43.200665 C 190.78636,43.200665 191.99999,42.770367 191.99999,41.782452 z M 223.14737,58.70081 L 222.79476,50.200665 L 227.86345,50.200665 C 230.65123,50.200665 234.45587,49.474046 236.31822,48.585956 C 242.9183,45.438595 244.99199,37.629524 240.58812,32.506429 C 238.28812,29.830796 237.70837,29.684724 228.08812,29.356958 L 217.99999,29.01325 L 217.99999,48.106958 L 217.99999,67.200665 L 220.74999,67.200815 L 223.49999,67.200955 L 223.14737,58.70081 z M 223.74999,47.62964 C 223.33749,47.21037 222.99999,43.286608 222.99999,38.910168 L 222.99999,30.953005 L 228.55076,31.413318 C 235.3602,31.97801 237.45454,33.811604 237.45454,39.208602 C 237.45454,44.421901 234.64826,47.26259 228.862,47.906519 C 226.46289,48.173505 224.16249,48.048909 223.74999,47.62964 z M 266.69884,60.056595 L 269.14872,53.412529 L 274.32436,52.811998 C 277.17095,52.481705 280.39999,52.359679 281.49999,52.540828 C 283.53901,52.876614 287.25829,59.199505 288.50566,64.450665 C 289.04027,66.701265 289.7087,67.200665 292.18643,67.200665 C 294.20019,67.200665 295.05173,66.782105 294.72947,65.950665 C 291.41431,57.397522 278.43454,28.200665 277.94732,28.200665 C 277.59131,28.200665 276.02528,31.238165 274.46725,34.950665 C 272.90922,38.663165 269.9723,45.300665 267.94076,49.700665 C 265.90921,54.100665 263.30362,59.867865 262.15055,62.516675 L 260.05405,67.332685 L 262.1515,67.016675 C 263.72553,66.779525 264.86033,65.042615 266.69884,60.056595 z M 271.56121,47.950665 C 271.94401,46.713165 273.27512,43.679399 274.51923,41.208962 L 276.78126,36.71726 L 279.89062,43.136176 C 281.60078,46.66658 282.99999,49.700346 282.99999,49.877878 C 282.99999,50.055411 280.26967,50.200665 276.9326,50.200665 C 271.10094,50.200665 270.89226,50.113249 271.56121,47.950665 z M 324.28703,58.200665 C 323.78098,50.389615 323.9144,49.200665 325.29703,49.200665 C 326.85431,49.200665 333.00975,56.127584 337.99999,63.495725 C 340.01885,66.476585 341.12548,67.188315 343.74999,67.193835 C 345.53749,67.197595 346.99999,67.039085 346.99999,66.841585 C 346.99999,66.644095 343.85459,62.706595 340.01021,58.091589 C 336.16583,53.476581 333.01583,49.453565 333.01021,49.151553 C 333.00459,48.849542 334.56137,48.037841 336.46971,47.347774 C 344.00943,44.621378 346.2316,37.278429 341.07691,32.123742 C 338.25311,29.299934 337.8286,29.200665 328.57691,29.200665 L 318.99999,29.200665 L 318.99999,48.200665 L 318.99999,67.200665 L 321.93505,67.200665 L 324.87012,67.200665 L 324.28703,58.200665 z M 324.66666,46.533998 C 323.83316,45.700498 323.78638,34.920911 324.60698,32.782452 C 325.03432,31.668828 326.52762,31.200665 329.65243,31.200665 C 335.59994,31.200665 339.52854,34.807907 338.60579,39.421645 C 337.77118,43.594709 336.44261,44.983359 332.14175,46.17797 C 327.89655,47.357125 325.5992,47.466544 324.66666,46.533998 z M 376.22439,57.700665 C 375.95011,52.456943 376.12454,48.223606 376.61373,48.251869 C 377.10117,48.280032 381.03587,52.555032 385.3575,57.751869 C 392.05564,65.806505 393.65409,67.200665 396.19083,67.200665 C 397.82754,67.200665 399.01666,66.814605 398.83332,66.342745 C 398.64999,65.870885 395.12499,61.778715 390.99999,57.249018 C 386.87499,52.719325 383.10094,48.310358 382.61321,47.451313 C 381.93254,46.252438 383.61761,44.035895 389.86321,37.914706 C 394.33844,33.528616 397.99999,29.773648 397.99999,29.570331 C 397.99999,29.367015 397.20256,29.200665 396.22791,29.200665 C 395.25327,29.200665 390.6507,33.025665 385.99999,37.700665 C 381.34928,42.375665 377.19671,46.200665 376.77207,46.200665 C 376.34742,46.200665 375.99999,42.375665 375.99999,37.700665 C 375.99999,29.300665 375.97058,29.200665 373.49999,29.200665 L 370.99999,29.200665 L 370.99999,48.200665 L 370.99999,67.200665 L 373.86064,67.200665 L 376.7213,67.200665 L 376.22439,57.700665 z M 400.99999,19.649649 C 400.99999,19.268019 400.32499,19.515976 399.49999,20.200665 C 398.29859,21.19774 397.99999,21.188937 397.99999,20.156443 C 397.99999,19.447432 397.7194,19.147924 397.37645,19.49087 C 397.03351,19.833816 397.03221,20.842252 397.37358,21.731838 C 397.92581,23.170927 398.15995,23.183558 399.49712,21.846395 C 400.3237,21.019815 400.99999,20.031279 400.99999,19.649649 z "
     id="path2360" />
  <flowRoot
     xml:space="preserve"
     id="flowRoot2362"
     transform="matrix(0.6718432,0,0,0.6255792,133.09195,9.3024896)"><flowRegion
       id="flowRegion2364"><rect
         id="rect2366"
         width="19.581081"
         height="12.628379"
         x="388.5"
         y="13.148648" /></flowRegion><flowPara
       id="flowPara2368"
       style="font-size:9px;fill:#ffffff">TM</flowPara></flowRoot></svg>
